ModelForces																												
version=1																												
nRows=23																												
nColumns=29																												
inDegrees=no																												
																												
This file contains the forces exerted on a model during a simulation.																												
																												
"A force is a generalized force, meaning that it can be either a force (N) or a torque (Nm)."																												
																												
"Units are S.I. units (second, meters, Newtons, ...)"																												
"If the header above contains a line with 'inDegrees', this indicates whether rotational values are in degrees (yes) or radians (no)."																												
																												
endheader																												
time	gastroc	glut_max	iliopsoas	recfem	hamstrings	soleus	tibant	vasti	ankle_angle_LimitForce	PotentialEnergy	knee_angle_LimitForce	PotentialEnergy	hip_flexion_LimitForce	PotentialEnergy	patellofemoral_knee_angle_con_mobility_F0	patellofemoral_knee_angle_con_mobility_F1	seatConstraint_ground_Fx	seatConstraint_ground_Fy	seatConstraint_ground_Fz	seatConstraint_ground_Mx	seatConstraint_ground_My	seatConstraint_ground_Mz	seatConstraint_femur_r_Fx	seatConstraint_femur_r_Fy	seatConstraint_femur_r_Fz	seatConstraint_femur_r_Mx	seatConstraint_femur_r_My	seatConstraint_femur_r_Mz
0.72857996	67.26801674	2619.361363	34.16037841	31.27577428	925.5977646	1376.994077	1164.968953	10410.50639	0	0	0	0	0	0	-147.6340024	147.6340024	0	0	0	0	0	0	0	0	0	0	0	0
0.73423948	67.66503928	2567.322817	34.20421737	31.21581879	902.9084102	1308.617308	1159.968456	10322.63766	0	0	0	0	0	0	-145.2128659	145.2128659	0	0	0	0	0	0	0	0	0	0	0	0
0.73528042	67.73609931	2557.520592	34.21399951	31.17554487	899.0618123	1359.268979	1159.035028	10305.29351	0	0	0	0	0	0	-144.7410935	144.7410935	0	0	0	0	0	0	0	0	0	0	0	0
0.73737928	67.88214137	2537.652924	34.23445397	31.1056846	891.603465	1376.88616	1157.13999	10269.22961	0	0	0	0	0	0	-143.7653774	143.7653774	0	0	0	0	0	0	0	0	0	0	0	0
0.74223062	68.22427712	2491.084356	34.28776661	30.93332288	875.8679928	1391.338129	1152.729273	10180.32313	0	0	0	0	0	0	-141.384454	141.384454	0	0	0	0	0	0	0	0	0	0	0	0
0.74594263	68.4869864	2454.951537	34.33418555	30.77990165	865.1899927	1360.857321	1149.350264	10107.19134	0	0	0	0	0	0	-139.4452288	139.4452288	0	0	0	0	0	0	0	0	0	0	0	0
0.74890768	68.69760635	2425.753269	34.37519085	30.66436174	857.4686365	1385.600631	1146.666013	10045.68439	0	0	0	0	0	0	-137.8242783	137.8242783	0	0	0	0	0	0	0	0	0	0	0	0
0.75311874	69.00126056	2384.061882	34.43852129	30.51358889	847.667862	1382.330089	1142.895326	9953.755688	0	0	0	0	0	0	-135.4138278	135.4138278	0	0	0	0	0	0	0	0	0	0	0	0
0.7596397	69.46114055	2318.913807	34.54932241	30.31609962	835.0030191	1431.953493	1137.212919	9801.178852	0	0	0	0	0	0	-131.4421171	131.4421171	0	0	0	0	0	0	0	0	0	0	0	0
0.76057896	69.53306179	2309.522619	34.56630489	30.26726647	833.410847	1388.496256	1136.411664	9778.219151	0	0	0	0	0	0	-130.8519353	130.8519353	0	0	0	0	0	0	0	0	0	0	0	0
0.76220613	69.65360242	2293.181172	34.59671648	30.20092521	830.7856965	1384.02434	1135.037188	9737.870299	0	0	0	0	0	0	-129.8218055	129.8218055	0	0	0	0	0	0	0	0	0	0	0	0
0.76976788	70.2419736	2216.906328	34.74993984	30.01498011	820.6240735	1215.990446	1128.859159	9541.253522	0	0	0	0	0	0	-124.9154085	124.9154085	0	0	0	0	0	0	0	0	0	0	0	0
0.77052405	70.28206775	2209.213053	34.76685596	29.96771094	819.781325	1340.304111	1128.261525	9520.794926	0	0	0	0	0	0	-124.4147729	124.4147729	0	0	0	0	0	0	0	0	0	0	0	0
0.77174561	70.35729472	2196.838502	34.79404863	29.91236936	818.4776194	1366.874986	1127.300024	9487.461161	0	0	0	0	0	0	-123.6027281	123.6027281	0	0	0	0	0	0	0	0	0	0	0	0
0.77501578	70.58599402	2163.703001	34.86899065	29.80556966	815.3421218	1377.449622	1124.762612	9396.490963	0	0	0	0	0	0	-121.4099623	121.4099623	0	0	0	0	0	0	0	0	0	0	0	0
0.78023103	70.96535612	2110.805168	34.99588563	29.67107313	811.6967665	1354.871812	1120.81447	9246.378248	0	0	0	0	0	0	-117.8622132	117.8622132	0	0	0	0	0	0	0	0	0	0	0	0
0.78332166	71.18388627	2079.359956	35.07573391	29.58200259	810.511113	1369.389259	1118.515418	9154.640359	0	0	0	0	0	0	-115.735058	115.735058	0	0	0	0	0	0	0	0	0	0	0	0
0.78800665	71.5119212	2031.752493	35.20288737	29.46870362	810.0789797	1354.280705	1115.044778	9011.883202	0	0	0	0	0	0	-112.4840423	112.4840423	0	0	0	0	0	0	0	0	0	0	0	0
0.79290184	71.8356577	1981.952393	35.34428918	29.34989355	811.1664127	1391.284621	1111.38077	8858.249883	0	0	0	0	0	0	-109.0629017	109.0629017	0	0	0	0	0	0	0	0	0	0	0	0
0.79367627	71.8857832	1974.086604	35.36729134	29.33416473	811.4593522	1365.081701	1110.791138	8833.553775	0	0	0	0	0	0	-108.5202185	108.5202185	0	0	0	0	0	0	0	0	0	0	0	0
0.79568556	72.01118911	1953.616053	35.4281878	29.29187958	812.3560983	1351.131983	1109.246365	8768.992404	0	0	0	0	0	0	-107.1110407	107.1110407	0	0	0	0	0	0	0	0	0	0	0	0
0.80196108	72.3745412	1889.748516	35.62770416	29.16557312	816.1844015	1246.090478	1104.206737	8563.150163	0	0	0	0	0	0	-102.7074908	102.7074908	0	0	0	0	0	0	0	0	0	0	0	0
0.8028035	72.41326101	1881.095602	35.65585707	29.149593	816.6917571	1310.505184	1103.514227	8534.998445	0	0	0	0	0	0	-102.1164148	102.1164148	0	0	0	0	0	0	0	0	0	0	0	0
